<svg version="1.2" xmlns="http://www.w3.org/2000/svg" viewBox="0 0 512 456" width="575" height="512">
	<style>
		.s0 { fill: none;stroke: #18161f;stroke-width: 1.7 } 
		.s1 { fill: none;stroke: #6b365c;stroke-width: 1.7 } 
		.s2 { fill: none;stroke: #612e59;stroke-width: 1.7 } 
		.s3 { fill: none;stroke: #542959;stroke-width: 1.7 } 
		.s4 { fill: none;stroke: #46295c;stroke-width: 1.7 } 
		.s5 { fill: none;stroke: #3b2960;stroke-width: 1.7 } 
		.s6 { fill: none;stroke: #151527;stroke-width: 1.7 } 
		.s7 { fill: none;stroke: #1e142d;stroke-width: 1.7 } 
		.s8 { fill: none;stroke: #211b37;stroke-width: 1.7 } 
		.s9 { fill: none;stroke: #271d3f;stroke-width: 1.7 } 
		.s10 { fill: none;stroke: #453768;stroke-width: 1.7 } 
		.s11 { fill: none;stroke: #4b3e6b;stroke-width: 1.7 } 
		.s12 { fill: none;stroke: #584a6f;stroke-width: 1.7 } 
		.s13 { fill: none;stroke: #635073;stroke-width: 1.7 } 
		.s14 { fill: none;stroke: #824664;stroke-width: 1.7 } 
		.s15 { fill: none;stroke: #753e60;stroke-width: 1.7 } 
		.s16 { fill: none;stroke: #ea76b0;stroke-width: 1.7 } 
		.s17 { fill: none;stroke: #864579;stroke-width: 1.7 } 
		.s18 { fill: none;stroke: #d367a8;stroke-width: 1.7 } 
		.s19 { fill: none;stroke: #7c3d75;stroke-width: 1.7 } 
		.s20 { fill: none;stroke: #be57a1;stroke-width: 1.7 } 
		.s21 { fill: none;stroke: #934d7d;stroke-width: 1.7 } 
		.s22 { fill: none;stroke: #e264a4;stroke-width: 1.7 } 
		.s23 { fill: none;stroke: #d6609b;stroke-width: 1.7 } 
		.s24 { fill: none;stroke: #c962a9;stroke-width: 1.7 } 
		.s25 { fill: none;stroke: #ba61ac;stroke-width: 1.7 } 
		.s26 { fill: none;stroke: #b062b0;stroke-width: 1.7 } 
		.s27 { fill: none;stroke: #4c3079;stroke-width: 1.7 } 
		.s28 { fill: none;stroke: #322250;stroke-width: 1.7 } 
		.s29 { fill: none;stroke: #261c40;stroke-width: 1.7 } 
		.s30 { fill: none;stroke: #723572;stroke-width: 1.7 } 
		.s31 { fill: none;stroke: #a84a9e;stroke-width: 1.7 } 
		.s32 { fill: none;stroke: #775d95;stroke-width: 1.7 } 
		.s33 { fill: none;stroke: #965387;stroke-width: 1.7 } 
		.s34 { fill: none;stroke: #695188;stroke-width: 1.7 } 
		.s35 { fill: none;stroke: #7e326d;stroke-width: 1.7 } 
		.s36 { fill: none;stroke: #a84390;stroke-width: 1.7 } 
		.s37 { fill: none;stroke: #c1458b;stroke-width: 1.7 } 
		.s38 { fill: none;stroke: #8d45a1;stroke-width: 1.7 } 
		.s39 { fill: none;stroke: #7445a8;stroke-width: 1.7 } 
		.s40 { fill: none;stroke: #6d2b54;stroke-width: 1.7 } 
		.s41 { fill: none;stroke: #c14c99;stroke-width: 1.7 } 
		.s42 { fill: none;stroke: #61274b;stroke-width: 1.7 } 
		.s43 { fill: none;stroke: #1f1d32;stroke-width: 1.7 } 
		.s44 { fill: none;stroke: #433173;stroke-width: 1.7 } 
		.s45 { fill: none;stroke: #2f2551;stroke-width: 1.7 } 
		.s46 { fill: none;stroke: #653072;stroke-width: 1.7 } 
		.s47 { fill: none;stroke: #5c316b;stroke-width: 1.7 } 
		.s48 { fill: none;stroke: #ae8cce;stroke-width: 1.7 } 
		.s49 { fill: none;stroke: #74578c;stroke-width: 1.7 } 
		.s50 { fill: none;stroke: #5f4c8d;stroke-width: 1.7 } 
		.s51 { fill: none;stroke: #967bc6;stroke-width: 1.7 } 
		.s52 { fill: none;stroke: #6c5792;stroke-width: 1.7 } 
		.s53 { fill: none;stroke: #46326b;stroke-width: 1.7 } 
		.s54 { fill: none;stroke: #55398b;stroke-width: 1.7 } 
		.s55 { fill: none;stroke: #3b2b61;stroke-width: 1.7 } 
		.s56 { fill: none;stroke: #382458;stroke-width: 1.7 } 
		.s57 { fill: none;stroke: #4d306f;stroke-width: 1.7 } 
		.s58 { fill: none;stroke: #8368bf;stroke-width: 1.7 } 
		.s59 { fill: none;stroke: #53467d;stroke-width: 1.7 } 
		.s60 { fill: none;stroke: #5c4584;stroke-width: 1.7 } 
		.s61 { fill: none;stroke: #4d3e7b;stroke-width: 1.7 } 
		.s62 { fill: none;stroke: #563e81;stroke-width: 1.7 } 
		.s63 { fill: none;stroke: #868689;stroke-width: 1.7 } 
		.s64 { fill: #dd6eab } 
		.s65 { fill: #352859 } 
		.s66 { fill: #f67eb4 } 
		.s67 { fill: #c85fa4 } 
		.s68 { fill: #b992d1 } 
		.s69 { fill: #b44e9e } 
		.s70 { fill: #9b459d } 
		.s71 { fill: #2f1b46 } 
		.s72 { fill: #7e44a4 } 
		.s73 { fill: #6945ac } 
		.s74 { fill: #1c1c39 } 
		.s75 { fill: #b54182 } 
		.s76 { fill: #a386ca } 
		.s77 { fill: #cd4993 } 
		.s78 { fill: #412d69 } 
		.s79 { fill: #0d0d14 } 
		.s80 { fill: #221e2a } 
		.s81 { fill: #896fc1 } 
		.s82 { fill: #7d60bc } 
		.s83 { fill: #fffefe } 
		.s84 { opacity: .2;fill: #fffefe } 
	</style>
	<g>
		<path fill-rule="evenodd" class="s0" d="m-156.94-154.46q-9.77 0.47-19.54 1.01c-2.01 0.11-3.63-0.15-3.64 2.16q-0.01 1.52-0.07 12.32-0.22 33.96-0.09 228.02 0.05 75.95 0.05 153.43 0 21.47-0.11 457.23 0 9.42 0.31 22.48 0.04 1.96 0.51 2.52 0.82 0.97 2.37 0.91 3.86-0.15 13.85-0.17 96.11-0.23 542.77-0.17 25 0 25.54 0.01c22.37 0.25 40.81-0.09 63.82 0.02q29.63 0.14 61.31 0.05 84.39-0.23 166.39 0.05 0.2 0 0.39-0.08 0.18-0.07 0.33-0.22 0.14-0.14 0.22-0.33 0.08-0.19 0.08-0.39v-876.82q0-0.05-0.01-0.09-0.01-0.05-0.02-0.1-0.01-0.04-0.03-0.08-0.03-0.05-0.05-0.09-0.69-0.94-2.34-0.96-3.96-0.03-13.16-0.71"/>
		<path fill-rule="evenodd" class="s1" d="m203.34 37.15q-23.33 2.62-45.07 10.98"/>
		<path fill-rule="evenodd" class="s2" d="m158.27 48.13q-2.75 0.97-5.45 2.11-23.25 9.8-43.4 25.06"/>
		<path fill-rule="evenodd" class="s3" d="m109.42 75.3q-16.49 12.83-30.07 28.81-1.58 1.85-3.07 3.88"/>
		<path fill-rule="evenodd" class="s4" d="m76.28 107.99c-16.02 19.65-27.64 43.22-34.42 67.52"/>
		<path fill-rule="evenodd" class="s5" d="m41.86 175.51q-11.02 39.83-2.31 80.78"/>
		<path fill-rule="evenodd" class="s6" d="m39.55 256.29l-0.68 10.59"/>
		<path fill-rule="evenodd" class="s7" d="m38.87 266.88q-0.42 13.36 1.73 26.61"/>
		<path fill-rule="evenodd" class="s8" d="m40.6 293.49c2.08 15.3 7.34 30.56 13.97 44.44"/>
		<path fill-rule="evenodd" class="s9" d="m54.57 337.93q3.93 8.26 8.8 15.9 20.1 31.45 51.49 51.57 28.08 18 60.83 23.72"/>
		<path fill-rule="evenodd" class="s8" d="m175.69 429.12q28.13 5.27 56.23 0.91"/>
		<path fill-rule="evenodd" class="s7" d="m231.92 430.03q13.6-2.05 26.18-5.64"/>
		<path fill-rule="evenodd" class="s10" d="m258.1 424.39c47.44 7.35 97.14-2.15 137.26-28.64"/>
		<path fill-rule="evenodd" class="s11" d="m395.36 395.75q26.04-16.84 45.57-40.64"/>
		<path fill-rule="evenodd" class="s12" d="m440.93 355.11q25.77-31.22 36.93-69.67"/>
		<path fill-rule="evenodd" class="s13" d="m477.86 285.44q11.69-41.1 5.44-83.05-7.63-51.19-39.61-91.63-39.64-50.12-101.39-67.27"/>
		<path fill-rule="evenodd" class="s8" d="m342.3 43.49c-22.86-5.71-47.01-8.55-70.12-5.41q-1.1 0.14-4.96 1.23-0.04 0.01-0.09 0.02-0.05 0.02-0.1 0.05-0.04 0.01-0.08 0.03-0.05 0.03-0.09 0.05-1.47 0.84-3.35 0.69"/>
		<path fill-rule="evenodd" class="s14" d="m263.51 40.15q-1.92-0.24-8.22-1.5-4.06-0.82-13.26-1.71"/>
		<path fill-rule="evenodd" class="s15" d="m242.03 36.94q-19.47-1.88-38.69 0.21"/>
		<path fill-rule="evenodd" class="s16" d="m242.03 36.94l-1.44 0.05q-0.08 0-0.16 0.05-0.08 0.03-0.14 0.09-0.06 0.06-0.08 0.15-0.04 0.07-0.03 0.16c1.33 23.44 0.96 45.53 3.64 70.22"/>
		<path fill-rule="evenodd" class="s17" d="m243.82 107.66q-21-1.42-41.86 1.52"/>
		<path fill-rule="evenodd" class="s18" d="m201.96 109.18q0.03-35.91 1.38-72.03"/>
		<path fill-rule="evenodd" class="s19" d="m201.96 109.18q-19.09 3.06-37.54 9.15"/>
		<path fill-rule="evenodd" class="s20" d="m164.42 118.33q-1.89-22.26-3.61-53.03-0.43-7.89-2.54-17.17"/>
		<path fill-rule="evenodd" class="s21" d="m348.81 86.02c33.52 32.53 51.85 74.74 52.15 121.78"/>
		<path fill-rule="evenodd" class="s22" d="m400.96 207.8l-0.49 0.59q-0.05 0.05-0.11 0.07-0.06 0.02-0.13 0.02-0.07-0.01-0.12-0.05-0.05-0.04-0.09-0.1l-8.99-18.14"/>
		<path fill-rule="evenodd" class="s23" d="m391.03 190.19q-11.24-18-26.86-32.01"/>
		<path fill-rule="evenodd" class="s24" d="m364.17 158.18l-8.46-7.3"/>
		<path fill-rule="evenodd" class="s25" d="m355.71 150.88q-19.47-15.76-42.21-25.85"/>
		<path fill-rule="evenodd" class="s26" d="m313.5 125.03q-7.19-3.35-17.74-6.97-21.14-7.26-42.35-9.27"/>
		<path fill-rule="evenodd" class="s21" d="m253.41 108.79l-9.59-1.13"/>
		<path fill-rule="evenodd" class="s27" d="m253.41 108.79q15.49 5.23 27.79 11.74 6.02 3.18 11.93 8.09"/>
		<path fill-rule="evenodd" class="s7" d="m293.13 128.62q-2.07 0.37-4.02 0.15-22.44-2.52-44.27 3.79"/>
		<path fill-rule="evenodd" class="s28" d="m244.84 132.56c-22.53-5.5-49.02-5.26-70.57 4.11-11.47 4.99-23.06 14.69-26 26.89-3.01 12.44 4.59 21.56 13.14 29.44"/>
		<path fill-rule="evenodd" class="s7" d="m161.41 193q-7.49 10.39-11.14 17.55-2.86 5.62-5.78 11.07"/>
		<path fill-rule="evenodd" class="s29" d="m144.49 221.62q-10.44-14.33-14.38-31.16-1.68-7.19-2.25-17.93-0.63-11.97-1.94-21.74-0.02-0.12-0.01-0.25 0.01-0.12 0.03-0.25 0.04-0.12 0.09-0.23 0.05-0.11 0.12-0.21 6.55-9.01 16.22-18.57c1.3-1.28 2.17-3.08 0.2-4.36"/>
		<path fill-rule="evenodd" class="s30" d="m164.42 118.33l-17.86 6.57"/>
		<path fill-rule="evenodd" class="s31" d="m146.56 124.9c-11.58-18.04-22.99-32.65-37.14-49.6"/>
		<path fill-rule="evenodd" class="s32" d="m342.3 43.49q-1.62 0.59 1.14 2.96 5.55 4.76 10.86 9.79 8.05 7.62 19.24 22.81"/>
		<path fill-rule="evenodd" class="s28" d="m373.54 79.05q-12.84 1.76-24.73 6.97"/>
		<path fill-rule="evenodd" class="s33" d="m348.81 86.02c-23.9-23-53.21-38.02-85.3-45.87"/>
		<path fill-rule="evenodd" class="s34" d="m415.02 187.65q2.09 26.64-1.84 52.88"/>
		<path fill-rule="evenodd" class="s28" d="m413.18 240.53q-4 2.85-8.4 4.8-4.3 1.92-5.71 6.11-1.19 3.55-1.67 8.32"/>
		<path fill-rule="evenodd" class="s7" d="m397.4 259.76l0.39-20.9"/>
		<path fill-rule="evenodd" class="s35" d="m397.79 238.86q2.95-15.29 3.17-31.06"/>
		<path fill-rule="evenodd" class="s36" d="m364.17 158.18q-21.12 2.6-41.76 7.46"/>
		<path fill-rule="evenodd" class="s37" d="m391.03 190.19q-21.81 3.27-43.15 7.95c-4.87 1.06-11.4 2.19-17.12 3.09q-0.08 0.01-0.17 0.06-0.08 0.04-0.14 0.11-0.06 0.07-0.09 0.14-0.04 0.09-0.05 0.18l-0.19 2.71"/>
		<path fill-rule="evenodd" class="s38" d="m355.71 150.88l-38.88 3.86"/>
		<path fill-rule="evenodd" class="s4" d="m316.83 154.74q-8.17-13.24-20.21-23.4"/>
		<path fill-rule="evenodd" class="s39" d="m313.5 125.03l-16.88 6.31"/>
		<path fill-rule="evenodd" class="s5" d="m296.62 131.34l-3.49-2.72"/>
		<path fill-rule="evenodd" class="s40" d="m397.79 238.86q-3.4 12.95-6.34 20.69-10.24 26.96-30.55 49.56"/>
		<path fill-rule="evenodd" class="s41" d="m360.9 309.11q-7.41-10.87-14.1-18.26-11.91-13.15-15.03-16.86-9.3-11.03-15.36-24.26"/>
		<path fill-rule="evenodd" class="s3" d="m316.83 154.74l5.58 10.9"/>
		<path fill-rule="evenodd" class="s42" d="m322.41 165.64q7.95 18.72 7.71 38.79"/>
		<path fill-rule="evenodd" class="s40" d="m330.12 204.43q-0.74 24.7-13.71 45.3"/>
		<path fill-rule="evenodd" class="s2" d="m316.41 249.73q-10.08 15.14-25.32 25.25"/>
		<path fill-rule="evenodd" class="s3" d="m291.09 274.98q-21.11 13.41-46.49 15.51"/>
		<path fill-rule="evenodd" class="s4" d="m244.6 290.49c-24.38 1.58-47.19-4.19-68.87-15.12"/>
		<path fill-rule="evenodd" class="s5" d="m175.73 275.37q-20.59-10.17-38.12-25.26-1.05-0.9-1.9-1.95"/>
		<path fill-rule="evenodd" class="s0" d="m135.71 248.16l0.82-4.61"/>
		<path fill-rule="evenodd" class="s8" d="m244.84 132.56q-19.6 5.9-34.95 15.17-28.29 17.08-48.48 45.27"/>
		<path fill-rule="evenodd" class="s6" d="m144.49 221.62q-0.83 2.25-3.6 8.35-2.4 5.31-4.36 13.58"/>
		<path fill-rule="evenodd" class="s43" d="m136.53 243.55l-2.11 3.54"/>
		<path fill-rule="evenodd" class="s44" d="m134.42 247.09l-16.26-14.98"/>
		<path fill-rule="evenodd" class="s45" d="m118.16 232.11l-12.73-13.59q-0.09-0.09-0.18-0.19-0.09-0.1-0.17-0.2-0.09-0.1-0.17-0.21-0.09-0.11-0.16-0.21l-3.75-5.1q-0.13-0.16-0.31-0.22-0.19-0.07-0.38-0.02-0.19 0.05-0.32 0.2-0.13 0.14-0.16 0.34-3.02 23.51 0.12 45.67"/>
		<path fill-rule="evenodd" class="s29" d="m99.95 258.58c-12.91 3.23-23.45 4.03-38.89 5.2q-10.27 0.8-22.19 3.1"/>
		<path fill-rule="evenodd" class="s44" d="m39.55 256.29q1.1-2.62 1.35-7.56 0.24-4.78 3.06-14.35 4.28-14.54 11.09-28.09 1.32-2.63 4.44-7.58"/>
		<path fill-rule="evenodd" class="s46" d="m146.56 124.9l-3.99 2.02"/>
		<path fill-rule="evenodd" class="s47" d="m142.57 126.92q-20.64 9.75-38.97 23.55"/>
		<path fill-rule="evenodd" class="s38" d="m103.6 150.47q-4.81-10.47-10.45-18.38-11.53-16.15-16.87-24.1"/>
		<path fill-rule="evenodd" class="s48" d="m477.86 285.44q-5.2-14.55-14.36-24.26-7.8-8.29-15.84-16.11c-10.75-10.44-20.07-22.4-26.02-36.25q-4.34-10.14-6.62-21.17"/>
		<path fill-rule="evenodd" class="s49" d="m415.02 187.65c-4.05-39.47-17.8-76.65-41.48-108.6"/>
		<path fill-rule="evenodd" class="s50" d="m396.87 297.56q-5.35 12.35-12.12 23.93"/>
		<path fill-rule="evenodd" class="s28" d="m384.75 321.49q-0.41-3.59 1.04-6.96"/>
		<path fill-rule="evenodd" class="s8" d="m397.4 259.76c-0.83 9.04-1.51 18.77-3.2 27.11q-2.9 14.22-8.41 27.66"/>
		<path fill-rule="evenodd" class="s7" d="m385.79 314.53l-6.98 9.7"/>
		<path fill-rule="evenodd" class="s6" d="m378.81 324.23l-3.13 2.05q-0.09 0.06-0.18 0.13-0.09 0.07-0.17 0.14-0.09 0.08-0.17 0.15-0.09 0.08-0.17 0.16-9.96 10.26-20.37 18.51-15.12 11.96-33.62 20.34c-12.19 5.53-24.4 9.89-37.93 12.66"/>
		<path fill-rule="evenodd" class="s7" d="m283.07 378.37q-28.88 6.24-58.26 2.55"/>
		<path fill-rule="evenodd" class="s8" d="m224.81 380.92q-29.57-4.09-55.38-18.67"/>
		<path fill-rule="evenodd" class="s9" d="m169.43 362.25q-15.69-8.97-28.28-21.59"/>
		<path fill-rule="evenodd" class="s8" d="m141.15 340.66q-12.7-12.34-21.74-27.56-1.24-2.08-0.48-2.74"/>
		<path fill-rule="evenodd" class="s4" d="m247.41 363.27q24.4-1.53 47.41-9.72"/>
		<path fill-rule="evenodd" class="s3" d="m294.82 353.55q26.19-9.66 47.67-27.11"/>
		<path fill-rule="evenodd" class="s2" d="m342.49 326.44q9.9-8.15 18.41-17.33"/>
		<path fill-rule="evenodd" class="s51" d="m440.93 355.11q-6.2-10.52-12.14-16.93-10.86-11.72-21.72-23.42-7-7.54-10.2-17.2"/>
		<path fill-rule="evenodd" class="s52" d="m396.87 297.56c7.83-18.1 13.57-37.45 16.31-57.03"/>
		<path fill-rule="evenodd" class="s31" d="m342.49 326.44q-24.83-26.6-51.4-51.46"/>
		<path fill-rule="evenodd" class="s38" d="m294.82 353.55c-9.29-11.8-18.01-20.82-27.57-30.83q-13.76-14.41-22.65-32.23"/>
		<path fill-rule="evenodd" class="s53" d="m134.42 247.09l1.29 1.07"/>
		<path fill-rule="evenodd" class="s39" d="m175.73 275.37c13.48 15.24 26.88 32.29 39.01 46.69 13.15 15.61 21.1 25.4 32.67 41.21"/>
		<path fill-rule="evenodd" class="s5" d="m247.41 363.27q-49.36 2.28-92.09-22.85-3.67-2.15-5.04-3.19"/>
		<path fill-rule="evenodd" class="s54" d="m118.16 232.11q0.64 10.49 1.87 20.83c3.55 29.84 14.74 58.61 30.25 84.29"/>
		<path fill-rule="evenodd" class="s9" d="m150.28 337.23q-8.41-5.06-13.1-9.22-4.29-3.79-8.57-7.61-2.84-2.52-5.01-4.85-2.32-2.49-4.67-5.19"/>
		<path fill-rule="evenodd" class="s55" d="m118.93 310.36q-4.66-6.01-6.2-9.97-2.31-5.92-5.11-11.62"/>
		<path fill-rule="evenodd" class="s56" d="m107.62 288.77q-5.11-14.74-7.67-30.19"/>
		<path fill-rule="evenodd" class="s57" d="m103.6 150.47q-2.47 1.99-5.04 4.06-23.39 18.71-39.07 44.18"/>
		<path fill-rule="evenodd" class="s39" d="m59.49 198.71q-9.51-11.16-17.63-23.2"/>
		<path fill-rule="evenodd" class="s28" d="m107.62 288.77c-15.04 2.05-27.66 2.21-41.64 2.48q-12.74 0.26-25.38 2.24"/>
		<path fill-rule="evenodd" class="s29" d="m373.55 338.54l5.26-14.31"/>
		<path fill-rule="evenodd" class="s58" d="m395.36 395.75c-10.29-14.91-21.69-27.26-35.04-39.8"/>
		<path fill-rule="evenodd" class="s59" d="m360.32 355.95l13.23-17.41"/>
		<path fill-rule="evenodd" class="s60" d="m373.55 338.54q6.26-8.18 11.2-17.05"/>
		<path fill-rule="evenodd" class="s55" d="m169.43 362.25q6.51 32.98 6.26 66.87"/>
		<path fill-rule="evenodd" class="s61" d="m360.32 355.95q-30.79 35.71-73.33 56.92"/>
		<path fill-rule="evenodd" class="s29" d="m286.99 412.87q0.84-17.8-3.92-34.5"/>
		<path fill-rule="evenodd" class="s28" d="m224.81 380.92q5.82 24.25 7.11 49.11"/>
		<path fill-rule="evenodd" class="s55" d="m141.15 340.66q-18.81-2.56-37.78-2.86-24.34-0.4-48.8 0.13"/>
		<path fill-rule="evenodd" class="s62" d="m258.1 424.39q15.47-4.83 28.89-11.52"/>
		<path class="s63" d="m491.32 481.26q0-1.21-0.47-2.34-0.46-1.13-1.32-1.99-0.86-0.85-1.99-1.32-1.13-0.46-2.34-0.46-1.21 0-2.34 0.46-1.13 0.47-1.99 1.32-0.86 0.86-1.33 1.99-0.46 1.13-0.46 2.34 0 1.22 0.46 2.34 0.47 1.13 1.33 1.99 0.86 0.86 1.99 1.33 1.13 0.46 2.34 0.46 1.21 0 2.34-0.46 1.13-0.47 1.99-1.33 0.86-0.86 1.32-1.99 0.47-1.12 0.47-2.34z"/>
		<path class="s63" d="m258.69 508.01q-0.07-0.1-0.09-0.22-0.03-0.12 0.01-0.24 0.03-0.11 0.12-0.21 0.08-0.09 0.2-0.13 10.11-3.58 11.36-13.42 1.06-8.32-5.25-12.82c-2.07-1.49-6.66-2.98-9.12-3.23q-10.59-1.06-22.05 0.73-0.09 0.01-0.18 0.06-0.09 0.05-0.15 0.11-0.06 0.08-0.1 0.18-0.03 0.08-0.03 0.19v52.48q0 0.09 0.03 0.17 0.04 0.08 0.1 0.14 0.06 0.06 0.14 0.09 0.09 0.04 0.18 0.04h9.39q0.12 0 0.24-0.05 0.11-0.05 0.19-0.13 0.09-0.09 0.14-0.2 0.04-0.12 0.04-0.24v-20.46q0-0.11 0.04-0.21 0.04-0.1 0.11-0.18 0.07-0.09 0.17-0.14 0.09-0.06 0.19-0.08 5.14-0.95 7.65 3.31 0.12 0.19 3.93 7.24 2.56 4.74 6.81 10.25 0.17 0.22 0.38 0.39 0.22 0.18 0.46 0.3 0.25 0.12 0.52 0.18 0.26 0.06 0.54 0.06h10.47q0.18 0 0.32-0.09 0.14-0.09 0.22-0.23 0.07-0.15 0.06-0.32-0.01-0.17-0.11-0.31-14.38-20.12-14.84-20.92c-0.51-0.9-1.52-1.34-2.09-2.09z"/>
		<path class="s63" d="m53.44 508.49q5.18 0 11.03 0.04 0.07 0 0.14 0.02 0.06 0.04 0.11 0.09 0.05 0.05 0.08 0.11 0.02 0.07 0.02 0.14v22.51q0 0.11 0.05 0.2 0.03 0.1 0.11 0.16 0.07 0.08 0.16 0.12 0.09 0.04 0.2 0.04h9.51q0.09 0 0.17-0.04 0.08-0.03 0.14-0.09 0.06-0.06 0.09-0.14 0.04-0.08 0.04-0.17v-53.46q0-0.09-0.04-0.17-0.03-0.08-0.09-0.14-0.07-0.06-0.15-0.1-0.08-0.03-0.17-0.03h-9.51q-0.11 0-0.2 0.03-0.08 0.04-0.16 0.11-0.07 0.08-0.11 0.17-0.04 0.09-0.04 0.2v20.55q0 0.07-0.02 0.13-0.03 0.06-0.07 0.11-0.04 0.04-0.1 0.07-0.07 0.03-0.13 0.03-1.26 0.05-11.06 0.05-9.81 0-11.06-0.05-0.07 0-0.13-0.02-0.06-0.03-0.11-0.08-0.04-0.05-0.07-0.11-0.02-0.06-0.02-0.13l0.01-20.55q0-0.11-0.04-0.2-0.04-0.09-0.11-0.17-0.08-0.07-0.16-0.11-0.09-0.03-0.2-0.03h-9.51q-0.09 0-0.17 0.03-0.08 0.04-0.15 0.1-0.06 0.06-0.09 0.14-0.04 0.08-0.04 0.17v53.46q0 0.09 0.03 0.17 0.03 0.08 0.09 0.14 0.06 0.06 0.14 0.09 0.09 0.04 0.17 0.04h9.52q0.1 0 0.19-0.04 0.1-0.04 0.16-0.12 0.08-0.06 0.12-0.16 0.04-0.09 0.04-0.2v-22.51q0-0.07 0.02-0.14 0.03-0.07 0.08-0.12 0.05-0.05 0.12-0.08 0.07-0.02 0.14-0.02 5.85-0.04 11.03-0.04z"/>
		<path class="s63" d="m445.12 477.63q-0.04 0-0.09 0.01-0.04 0.01-0.07 0.04-0.04 0.03-0.06 0.06-0.03 0.04-0.04 0.08l-17.09 53.74q-0.02 0.06-0.01 0.12 0.01 0.06 0.05 0.11 0.04 0.05 0.09 0.08 0.06 0.03 0.12 0.03h10.51q0.04 0 0.09-0.02 0.04 0 0.07-0.03 0.04-0.03 0.06-0.07 0.03-0.03 0.04-0.07l3.96-14.19q0.01-0.04 0.03-0.07 0.03-0.04 0.06-0.07 0.04-0.03 0.08-0.04 0.04-0.02 0.08-0.02h16.3q0.05 0 0.09 0.02 0.04 0.01 0.08 0.04 0.03 0.03 0.06 0.07 0.02 0.03 0.03 0.07l3.87 14.19q0.01 0.05 0.04 0.08 0.02 0.03 0.06 0.07 0.03 0.02 0.08 0.03 0.04 0.02 0.08 0.02h11.1q0.06 0 0.12-0.03 0.05-0.03 0.09-0.08 0.04-0.05 0.05-0.11 0-0.06-0.01-0.12l-16.99-53.75q-0.01-0.04-0.04-0.08-0.02-0.03-0.06-0.06-0.03-0.03-0.07-0.04-0.05-0.01-0.09-0.01z"/>
		<path class="s63" d="m315.41 501.46h3.71q0.12 0 0.25 0.05 0.12 0.05 0.2 0.14 0.1 0.09 0.15 0.21 0.05 0.12 0.05 0.25 0.11 5.28 0.06 15.57c-0.01 5.07 0.17 9.31 4.05 12.67 3.47 3.01 9.84 2.59 14.02 1.56q0.21-0.05 0.39-0.17 0.19-0.12 0.33-0.29 0.13-0.18 0.21-0.38 0.07-0.21 0.07-0.43v-6.09q0-0.19-0.09-0.38-0.09-0.17-0.23-0.28-0.16-0.12-0.35-0.16-0.19-0.04-0.37 0.01c-7.07 1.92-8.2-3.46-7.96-9.21q0.04-0.8 0.03-12.66 0-0.07 0.03-0.15 0.03-0.07 0.08-0.13 0.06-0.05 0.13-0.08 0.07-0.03 0.15-0.03h8.13q0.18 0 0.33-0.07 0.17-0.06 0.29-0.18 0.12-0.12 0.18-0.29 0.07-0.15 0.07-0.32v-6.11q0-0.19-0.08-0.37-0.07-0.17-0.21-0.31-0.13-0.14-0.31-0.21-0.18-0.08-0.37-0.08h-7.54q-0.15 0-0.29-0.06-0.14-0.05-0.24-0.15-0.1-0.1-0.16-0.24-0.05-0.14-0.05-0.29v-9.71q0-0.12-0.06-0.23-0.05-0.1-0.14-0.18-0.1-0.07-0.21-0.08-0.12-0.03-0.23 0l-8.96 2.44q-0.11 0.03-0.19 0.09-0.09 0.06-0.15 0.14-0.06 0.08-0.09 0.18-0.04 0.1-0.04 0.2v7.53q0 0.1-0.03 0.19-0.04 0.09-0.1 0.16-0.07 0.07-0.16 0.11-0.09 0.03-0.19 0.03h-4.27q-0.16 0-0.31 0.06-0.14 0.06-0.25 0.18-0.12 0.12-0.18 0.26-0.07 0.15-0.07 0.31v6.01q0 0.19 0.08 0.37 0.07 0.18 0.21 0.32 0.14 0.14 0.31 0.21 0.18 0.07 0.37 0.07z"/>
		<path class="s63" d="m103.06 532.54c11.49-0.74 18.69-7.88 19.09-19.34 0.44-12.74-8.32-21.08-20.84-20.29-11.48 0.75-18.68 7.89-19.08 19.34-0.44 12.75 8.31 21.1 20.83 20.29z"/>
		<path class="s63" d="m128.58 494.01v37.23q0 0.14 0.06 0.27 0.05 0.12 0.14 0.22 0.11 0.09 0.23 0.15 0.13 0.05 0.27 0.05h8.82q0.16 0 0.31-0.06 0.15-0.06 0.26-0.17 0.11-0.11 0.17-0.26 0.06-0.15 0.06-0.31 0.05-15.21-0.04-19.86-0.1-5.11 1.28-7.14 2.1-3.12 6.63-2.74c4.65 0.37 5.6 4.65 5.67 8.53q0.13 7.86-0.01 21.38 0 0.12 0.04 0.23 0.04 0.12 0.13 0.2 0.08 0.09 0.19 0.14 0.11 0.04 0.24 0.04h8.98q0.16 0 0.3-0.06 0.14-0.06 0.25-0.17 0.12-0.11 0.17-0.25 0.06-0.15 0.06-0.3-0.17-16.47 0.06-22.61 0.22-6.28 5.84-7.25c6.71-1.16 7.6 5.24 7.6 10.19q-0.02 18.91-0.01 20.03 0 0.09 0.03 0.17 0.04 0.08 0.1 0.14 0.06 0.06 0.15 0.09 0.08 0.04 0.16 0.04h9.23q0.13 0 0.25-0.05 0.13-0.06 0.23-0.15 0.09-0.1 0.15-0.22 0.06-0.13 0.06-0.27 0.06-11.71 0.01-23.68c-0.02-6.01-2.68-12.5-8.97-14.08q-8.38-2.09-14.67 3.69-1.85 1.7-1.95 1.78-0.07 0.07-0.18 0.1-0.1 0.04-0.2 0.02-0.1-0.01-0.19-0.06-0.09-0.05-0.16-0.14c-1.86-2.67-3.5-4.69-6.91-5.45q-9.27-2.08-14.94 5.12-0.08 0.12-0.21 0.15-0.14 0.04-0.27-0.01-0.13-0.04-0.21-0.15-0.08-0.12-0.08-0.26v-3.63q0-0.21-0.08-0.4-0.08-0.18-0.22-0.33-0.15-0.14-0.34-0.22-0.19-0.08-0.4-0.08h-7.69q-0.08 0-0.16 0.04-0.06 0.02-0.12 0.07-0.06 0.06-0.08 0.13-0.04 0.08-0.04 0.16z"/>
		<path class="s63" d="m223.3 523.3c-6.84 2.25-19.31 3.14-20.96-6.91q-0.02-0.13 0.02-0.26 0.03-0.13 0.11-0.22 0.09-0.09 0.2-0.15 0.12-0.05 0.25-0.05h24q0.1 0 0.17-0.04 0.09-0.02 0.16-0.08 0.07-0.06 0.11-0.13 0.04-0.08 0.06-0.17c1.3-7.67-1-18.55-9.12-21.17q-9.33-3-16.27 1.13-7.4 4.4-9.1 13.43c-1.26 6.65-0.12 15.13 5.45 19.67 7.18 5.82 18.14 5.04 26.65 2.21q0.21-0.08 0.39-0.22 0.18-0.15 0.29-0.36 0.11-0.19 0.13-0.43 0.03-0.22-0.03-0.45l-1.42-5.22q-0.04-0.17-0.16-0.3-0.11-0.14-0.26-0.22-0.15-0.08-0.33-0.1-0.17-0.01-0.34 0.04z"/>
		<path class="s63" d="m301.02 527.8v3.39q0 0.14 0.06 0.28 0.05 0.13 0.15 0.24 0.11 0.1 0.25 0.16 0.13 0.05 0.28 0.05h8.64q0.11 0 0.21-0.04 0.09-0.06 0.17-0.13 0.07-0.09 0.09-0.19 0.03-0.11 0.01-0.22c-0.81-4.58-0.45-11.75-0.52-23.16q-0.04-5.8-3.9-11.01-0.07-0.09-0.14-0.18-0.08-0.07-0.16-0.15-0.07-0.08-0.16-0.15-0.08-0.07-0.17-0.13-3.17-2.27-5-2.71-10.63-2.54-21.41 2.54-0.04 0.02-0.08 0.06-0.04 0.04-0.06 0.08-0.03 0.04-0.03 0.09 0 0.06 0.01 0.1l1.98 7.24q0.01 0.03 0.03 0.05 0.02 0.02 0.04 0.03 0.02 0.01 0.05 0.01 0.02-0.01 0.05-0.02 3.88-2.27 7.73-3.15c2.41-0.54 7.93-0.61 9.44 2.09q0.88 1.58 0.87 3.62 0 0.16-0.07 0.3-0.06 0.16-0.16 0.27-0.11 0.11-0.26 0.18-0.14 0.07-0.3 0.09c-6.29 0.48-10.95 0.74-15.63 3.64-4.54 2.83-6.46 7.75-5.59 12.79 2 11.63 16.73 10.76 22.96 3.71q0.07-0.09 0.18-0.12 0.1-0.02 0.21 0.01 0.1 0.05 0.17 0.14 0.06 0.09 0.06 0.2z"/>
		<path class="s63" d="m373.58 523.24c-6.81 2.27-19.22 3.2-20.92-6.8q-0.01-0.13 0.02-0.25 0.04-0.13 0.11-0.23 0.09-0.09 0.2-0.15 0.12-0.05 0.25-0.05l23.91-0.11q0.09 0 0.17-0.03 0.09-0.03 0.16-0.09 0.06-0.06 0.1-0.12 0.04-0.08 0.06-0.17c1.26-7.65-1.07-18.47-9.17-21.05q-9.31-2.95-16.2 1.2-7.36 4.41-9.01 13.41c-1.22 6.63-0.06 15.07 5.52 19.57 7.17 5.77 18.09 4.94 26.55 2.09q0.21-0.08 0.39-0.23 0.17-0.15 0.29-0.35 0.11-0.2 0.13-0.43 0.02-0.23-0.04-0.45l-1.44-5.2q-0.04-0.16-0.15-0.3-0.11-0.13-0.26-0.21-0.15-0.08-0.34-0.1-0.17-0.02-0.33 0.05z"/>
		<path class="s63" d="m382.98 522.95l-1.78 6.39q-0.05 0.15-0.03 0.3 0.02 0.15 0.09 0.28 0.06 0.14 0.17 0.25 0.11 0.1 0.24 0.17c7.01 2.98 19.09 4.01 24.63-2.46q3.79-4.44 2.2-10.7c-1.43-5.61-8.17-7.88-13.05-9.57-2.48-0.86-4.99-4.24-1.94-6.25 3.31-2.18 8.99-0.66 12 1.2q0.02 0.01 0.05 0.01 0.03 0.01 0.06-0.01 0.02 0 0.05-0.03 0.02-0.02 0.03-0.05l1.97-7.09q0.01-0.05 0.01-0.11 0-0.06-0.03-0.12-0.03-0.05-0.06-0.08-0.04-0.05-0.09-0.06c-7.62-3.19-20.39-3.56-24.26 5.16-2.79 6.31 0.47 12.85 6.94 15.29q6.33 2.39 7.42 3.26c2.91 2.29 0.89 5.64-2.21 6.14q-5.4 0.86-11.58-2.29-0.12-0.06-0.25-0.06-0.13-0.01-0.25 0.05-0.12 0.06-0.21 0.15-0.09 0.1-0.12 0.23z"/>
		<path class="s63" d="m490.19 494.09q0-0.11-0.04-0.2-0.03-0.1-0.11-0.18-0.08-0.07-0.17-0.11-0.1-0.04-0.2-0.04l-9.35-0.02q-0.1 0-0.2 0.05-0.1 0.03-0.17 0.11-0.08 0.07-0.12 0.17-0.03 0.1-0.03 0.2l-0.07 37.32q0 0.1 0.04 0.2 0.03 0.09 0.11 0.17 0.08 0.07 0.18 0.11 0.09 0.04 0.19 0.04l9.35 0.02q0.1 0 0.2-0.05 0.1-0.03 0.17-0.11 0.08-0.06 0.12-0.17 0.03-0.09 0.03-0.2z"/>
		<path class="s63" d="m419.93 519.35q-1.28-0.19-2.54 0.13-1.26 0.32-2.31 1.11-1.04 0.81-1.71 1.94-0.69 1.15-0.88 2.47-0.2 1.32 0.09 2.61 0.31 1.3 1.07 2.36 0.77 1.08 1.87 1.77 1.1 0.68 2.38 0.88 1.28 0.19 2.54-0.13 1.26-0.33 2.31-1.12 1.04-0.8 1.72-1.94 0.67-1.14 0.87-2.47 0.2-1.31-0.09-2.6-0.31-1.31-1.07-2.37-0.76-1.08-1.87-1.77-1.1-0.67-2.38-0.87z"/>
		<path class="s63" d="m243.76 486.34v14.29q0 0.18 0.07 0.35 0.07 0.17 0.2 0.3 0.13 0.13 0.3 0.2 0.17 0.07 0.35 0.07h6.02c1.1 0 2.2-0.19 3.22-0.57q1.55-0.56 2.73-1.62c0.78-0.69 1.4-1.52 1.83-2.42q0.63-1.36 0.64-2.84v-1.23q-0.01-1.48-0.64-2.85c-0.43-0.9-1.05-1.72-1.83-2.42-0.78-0.69-1.71-1.24-2.73-1.61-1.02-0.38-2.12-0.57-3.22-0.57h-6.02q-0.18 0-0.35 0.07-0.17 0.07-0.3 0.19-0.13 0.13-0.2 0.31-0.07 0.17-0.07 0.35z"/>
		<path class="s63" d="m451.11 509.65q5.16 0 5.88-0.05 0.11-0.01 0.21-0.06 0.11-0.06 0.17-0.16 0.07-0.09 0.08-0.2 0.03-0.11-0.01-0.22l-6.11-22.46q-0.01 0-0.01-0.01 0-0.01 0-0.02-0.01-0.01-0.02-0.01 0-0.01-0.01-0.02-0.1-0.1-0.26-0.1-0.14 0-0.24 0.1-0.01 0.01-0.01 0.02-0.01 0-0.02 0.01 0 0.01-0.01 0.02 0 0.01-0.01 0.01l-5.97 22.49q-0.03 0.11-0.01 0.23 0.02 0.11 0.09 0.2 0.06 0.09 0.16 0.15 0.1 0.05 0.21 0.06 0.72 0.04 5.89 0.02z"/>
		<path class="s63" d="m93.15 512.6c-0.06 5.63 2.04 12.23 8.87 12.3 6.83 0.06 9.04-6.5 9.11-12.12 0.05-5.63-2.04-12.23-8.87-12.3-6.84-0.07-9.05 6.5-9.11 12.12z"/>
		<path class="s63" d="m203.53 508.69l14.09-0.1q0.13 0 0.25-0.05 0.12-0.05 0.2-0.14 0.1-0.09 0.14-0.22 0.05-0.11 0.05-0.24v-0.21q-0.02-1.58-0.6-3.06-0.59-1.47-1.67-2.59-1.08-1.12-2.49-1.72c-0.92-0.4-1.92-0.6-2.92-0.59h-0.15q-1.51 0.02-2.91 0.63-1.39 0.63-2.46 1.76-1.05 1.14-1.63 2.61-0.57 1.48-0.55 3.07v0.2q0 0.13 0.05 0.26 0.05 0.12 0.13 0.2 0.1 0.1 0.22 0.15 0.12 0.04 0.25 0.04z"/>
		<path class="s63" d="m299.73 513.7c-3.43 0.15-8.34 0.51-10.63 2.82q-2.97 3-0.72 6.43 1.05 1.61 2.76 1.8 7.26 0.84 8.9-6.26 0.53-2.31 0.28-4.29-0.02-0.11-0.07-0.21-0.05-0.09-0.13-0.16-0.08-0.07-0.19-0.1-0.1-0.04-0.2-0.03z"/>
		<path class="s63" d="m353.87 508.67l13.96-0.05q0.12 0 0.24-0.04 0.11-0.05 0.2-0.14 0.08-0.08 0.14-0.2 0.04-0.12 0.04-0.24l-0.01-0.32c0-1.05-0.21-2.07-0.59-3.03q-0.58-1.44-1.65-2.55-1.07-1.1-2.45-1.7c-0.92-0.4-1.91-0.6-2.9-0.6h-0.07c-0.99 0-1.98 0.21-2.89 0.61q-1.39 0.6-2.46 1.72c-0.69 0.73-1.24 1.61-1.62 2.57q-0.57 1.46-0.57 3.03l0.01 0.32q0 0.12 0.04 0.25 0.05 0.11 0.14 0.19 0.08 0.09 0.2 0.14 0.12 0.04 0.24 0.04z"/>
	</g>
	<path class="s64" d="m242.03 36.94l-1.44 0.05q-0.08 0-0.16 0.05-0.08 0.03-0.14 0.09-0.06 0.06-0.08 0.15-0.04 0.07-0.03 0.16c1.33 23.44 0.96 45.53 3.64 70.22q-21-1.42-41.86 1.52 0.03-35.91 1.38-72.03 19.22-2.09 38.69-0.21z"/>
	<path class="s65" d="m342.3 43.49q-1.62 0.59 1.14 2.96 5.55 4.76 10.86 9.79 8.05 7.62 19.24 22.81-12.84 1.76-24.73 6.97c-23.9-23-53.21-38.02-85.3-45.87q1.88 0.15 3.35-0.69 0.04-0.02 0.09-0.05 0.04-0.02 0.08-0.03 0.05-0.03 0.1-0.05 0.05-0.01 0.09-0.02 3.86-1.09 4.96-1.23c23.11-3.14 47.26-0.3 70.12 5.41z"/>
	<path class="s66" d="m242.03 36.94q9.2 0.89 13.26 1.71 6.3 1.26 8.22 1.5c32.09 7.85 61.4 22.87 85.3 45.87 33.52 32.53 51.85 74.74 52.15 121.78l-0.49 0.59q-0.05 0.05-0.11 0.07-0.06 0.02-0.13 0.02-0.07-0.01-0.12-0.05-0.05-0.04-0.09-0.1l-8.99-18.14q-11.24-18-26.86-32.01l-8.46-7.3q-19.47-15.76-42.21-25.85-7.19-3.35-17.74-6.97-21.14-7.26-42.35-9.27l-9.59-1.13c-2.68-24.69-2.31-46.78-3.64-70.22q-0.01-0.09 0.03-0.16 0.02-0.09 0.08-0.15 0.06-0.06 0.14-0.09 0.08-0.05 0.16-0.05z"/>
	<path class="s67" d="m203.34 37.15q-1.35 36.12-1.38 72.03-19.09 3.06-37.54 9.15-1.89-22.26-3.61-53.03-0.43-7.89-2.54-17.17 21.74-8.36 45.07-10.98z"/>
	<path class="s68" d="m477.86 285.44q-5.2-14.55-14.36-24.26-7.8-8.29-15.84-16.11c-10.75-10.44-20.07-22.4-26.02-36.25q-4.34-10.14-6.62-21.17c-4.05-39.47-17.8-76.65-41.48-108.6q-11.19-15.19-19.24-22.81-5.31-5.03-10.86-9.79-2.76-2.37-1.14-2.96 61.75 17.15 101.39 67.27 31.98 40.44 39.61 91.63 6.25 41.95-5.44 83.05z"/>
	<path class="s69" d="m158.27 48.13q2.11 9.28 2.54 17.17 1.72 30.77 3.61 53.03l-17.86 6.57c-11.58-18.04-22.99-32.65-37.14-49.6q20.15-15.26 43.4-25.06 2.7-1.14 5.45-2.11z"/>
	<path class="s70" d="m109.42 75.3c14.15 16.95 25.56 31.56 37.14 49.6l-3.99 2.02q-20.64 9.75-38.97 23.55-4.81-10.47-10.45-18.38-11.53-16.15-16.87-24.1 1.49-2.03 3.07-3.88 13.58-15.98 30.07-28.81z"/>
	<path class="s71" d="m373.54 79.05c23.68 31.95 37.43 69.13 41.48 108.6q2.09 26.64-1.84 52.88-4 2.85-8.4 4.8-4.3 1.92-5.71 6.11-1.19 3.55-1.67 8.32l0.39-20.9q2.95-15.29 3.17-31.06c-0.3-47.04-18.63-89.25-52.15-121.78q11.89-5.21 24.73-6.97z"/>
	<path class="s71" d="m243.82 107.66l9.59 1.13q15.49 5.23 27.79 11.74 6.02 3.18 11.93 8.09-2.07 0.37-4.02 0.15-22.44-2.52-44.27 3.79c-22.53-5.5-49.02-5.26-70.57 4.11-11.47 4.99-23.06 14.69-26 26.89-3.01 12.44 4.59 21.56 13.14 29.44q-7.49 10.39-11.14 17.55-2.86 5.62-5.78 11.07-10.44-14.33-14.38-31.16-1.68-7.19-2.25-17.93-0.63-11.97-1.94-21.74-0.02-0.12-0.01-0.25 0.01-0.12 0.03-0.25 0.04-0.12 0.09-0.23 0.05-0.11 0.12-0.21 6.55-9.01 16.22-18.57c1.3-1.28 2.17-3.08 0.2-4.36l3.99-2.02 17.86-6.57q18.45-6.09 37.54-9.15 20.86-2.94 41.86-1.52z"/>
	<path class="s72" d="m76.28 107.99q5.34 7.95 16.87 24.1 5.64 7.91 10.45 18.38-2.47 1.99-5.04 4.06-23.39 18.71-39.07 44.18-9.51-11.16-17.63-23.2c6.78-24.3 18.4-47.87 34.42-67.52z"/>
	<path class="s73" d="m313.5 125.03l-16.88 6.31-3.49-2.72q-5.91-4.91-11.93-8.09-12.3-6.51-27.79-11.74 21.21 2.01 42.35 9.27 10.55 3.62 17.74 6.97z"/>
	<path class="s72" d="m355.71 150.88l-38.88 3.86q-8.17-13.24-20.21-23.4l16.88-6.31q22.74 10.09 42.21 25.85z"/>
	<path class="s74" d="m142.57 126.92c1.97 1.28 1.1 3.08-0.2 4.36q-9.67 9.56-16.22 18.57-0.07 0.1-0.12 0.21-0.05 0.11-0.09 0.23-0.02 0.13-0.03 0.25-0.01 0.13 0.01 0.25 1.31 9.77 1.94 21.74 0.57 10.74 2.25 17.93 3.94 16.83 14.38 31.16-0.83 2.25-3.6 8.35-2.4 5.31-4.36 13.58l-2.11 3.54-16.26-14.98-12.73-13.59q-0.09-0.09-0.18-0.19-0.09-0.1-0.17-0.2-0.09-0.1-0.17-0.21-0.09-0.11-0.16-0.21l-3.75-5.1q-0.13-0.16-0.31-0.22-0.19-0.07-0.38-0.02-0.19 0.05-0.32 0.2-0.13 0.14-0.16 0.34-3.02 23.51 0.12 45.67c-12.91 3.23-23.45 4.03-38.89 5.2q-10.27 0.8-22.19 3.1l0.68-10.59q1.1-2.62 1.35-7.56 0.24-4.78 3.06-14.35 4.28-14.54 11.09-28.09 1.32-2.63 4.44-7.58 15.68-25.47 39.07-44.18 2.57-2.07 5.04-4.06 18.33-13.8 38.97-23.55z"/>
	<path class="s65" d="m244.84 132.56q-19.6 5.9-34.95 15.17-28.29 17.08-48.48 45.27c-8.55-7.88-16.15-17-13.14-29.44 2.94-12.2 14.53-21.9 26-26.89 21.55-9.37 48.04-9.61 70.57-4.11z"/>
	<path class="s70" d="m364.17 158.18q-21.12 2.6-41.76 7.46l-5.58-10.9 38.88-3.86z"/>
	<path class="s75" d="m391.03 190.19q-21.81 3.27-43.15 7.95c-4.87 1.06-11.4 2.19-17.12 3.09q-0.08 0.01-0.17 0.06-0.08 0.04-0.14 0.11-0.06 0.07-0.09 0.14-0.04 0.09-0.05 0.18l-0.19 2.71q0.24-20.07-7.71-38.79 20.64-4.86 41.76-7.46 15.62 14.01 26.86 32.01z"/>
	<path class="s73" d="m41.86 175.51q8.12 12.04 17.63 23.2-3.12 4.95-4.44 7.58-6.81 13.55-11.09 28.09-2.82 9.57-3.06 14.35-0.25 4.94-1.35 7.56-8.71-40.95 2.31-80.78z"/>
	<path class="s76" d="m477.86 285.44q-11.16 38.45-36.93 69.67-6.2-10.52-12.14-16.93-10.86-11.72-21.72-23.42-7-7.54-10.2-17.2c7.83-18.1 13.57-37.45 16.31-57.03q3.93-26.24 1.84-52.88 2.28 11.03 6.62 21.17c5.95 13.85 15.27 25.81 26.02 36.25q8.04 7.82 15.84 16.11 9.16 9.71 14.36 24.26z"/>
	<path class="s77" d="m391.03 190.19l8.99 18.14q0.04 0.06 0.09 0.1 0.05 0.04 0.12 0.05 0.07 0 0.13-0.02 0.06-0.02 0.11-0.07l0.49-0.59q-0.22 15.77-3.17 31.06-3.4 12.95-6.34 20.69-10.24 26.96-30.55 49.56-7.41-10.87-14.1-18.26-11.91-13.15-15.03-16.86-9.3-11.03-15.36-24.26 12.97-20.6 13.71-45.3l0.19-2.71q0.01-0.09 0.05-0.18 0.03-0.07 0.09-0.14 0.06-0.07 0.14-0.11 0.09-0.05 0.17-0.06c5.72-0.9 12.25-2.03 17.12-3.09q21.34-4.68 43.15-7.95z"/>
	<path class="s78" d="m118.16 232.11q0.64 10.49 1.87 20.83c3.55 29.84 14.74 58.61 30.25 84.29q-8.41-5.06-13.1-9.22-4.29-3.79-8.57-7.61-2.84-2.52-5.01-4.85-2.32-2.49-4.67-5.19-4.66-6.01-6.2-9.97-2.31-5.92-5.11-11.62-5.11-14.74-7.67-30.19-3.14-22.16-0.12-45.67 0.03-0.2 0.16-0.34 0.13-0.15 0.32-0.2 0.19-0.05 0.38 0.02 0.18 0.06 0.31 0.22l3.75 5.1q0.07 0.1 0.16 0.21 0.08 0.11 0.17 0.21 0.08 0.1 0.17 0.2 0.09 0.1 0.18 0.19z"/>
	<path class="s73" d="m118.16 232.11l16.26 14.98 1.29 1.07q0.85 1.05 1.9 1.95 17.53 15.09 38.12 25.26c13.48 15.24 26.88 32.29 39.01 46.69 13.15 15.61 21.1 25.4 32.67 41.21q-49.36 2.28-92.09-22.85-3.67-2.15-5.04-3.19c-15.51-25.68-26.7-54.45-30.25-84.29q-1.23-10.34-1.87-20.83z"/>
	<path class="s79" d="m397.79 238.86l-0.39 20.9c-0.83 9.04-1.51 18.77-3.2 27.11q-2.9 14.22-8.41 27.66l-6.98 9.7-3.13 2.05q-0.09 0.06-0.18 0.13-0.09 0.07-0.17 0.14-0.09 0.08-0.17 0.15-0.09 0.08-0.17 0.16-9.96 10.26-20.37 18.51-15.12 11.96-33.62 20.34c-12.19 5.53-24.4 9.89-37.93 12.66q-28.88 6.24-58.26 2.55-29.57-4.09-55.38-18.67-15.69-8.97-28.28-21.59-12.7-12.34-21.74-27.56-1.24-2.08-0.48-2.74 2.35 2.7 4.67 5.19 2.17 2.33 5.01 4.85 4.28 3.82 8.57 7.61 4.69 4.16 13.1 9.22 1.37 1.04 5.04 3.19 42.73 25.13 92.09 22.85 24.4-1.53 47.41-9.72 26.19-9.66 47.67-27.11 9.9-8.15 18.41-17.33 20.31-22.6 30.55-49.56 2.94-7.74 6.34-20.69z"/>
	<path class="s65" d="m413.18 240.53c-2.74 19.58-8.48 38.93-16.31 57.03q-5.35 12.35-12.12 23.93-0.41-3.59 1.04-6.96 5.51-13.44 8.41-27.66c1.69-8.34 2.37-18.07 3.2-27.11q0.48-4.77 1.67-8.32 1.41-4.19 5.71-6.11 4.4-1.95 8.4-4.8z"/>
	<path class="s80" d="m136.53 243.55l-0.82 4.61-1.29-1.07z"/>
	<path class="s69" d="m316.41 249.73q6.06 13.23 15.36 24.26 3.12 3.71 15.03 16.86 6.69 7.39 14.1 18.26-8.51 9.18-18.41 17.33-24.83-26.6-51.4-51.46 15.24-10.11 25.32-25.25z"/>
	<path class="s71" d="m99.95 258.58q2.56 15.45 7.67 30.19c-15.04 2.05-27.66 2.21-41.64 2.48q-12.74 0.26-25.38 2.24-2.15-13.25-1.73-26.61 11.92-2.3 22.19-3.1c15.44-1.17 25.98-1.97 38.89-5.2z"/>
	<path class="s70" d="m291.09 274.98q26.57 24.86 51.4 51.46-21.48 17.45-47.67 27.11c-9.29-11.8-18.01-20.82-27.57-30.83q-13.76-14.41-22.65-32.23 25.38-2.1 46.49-15.51z"/>
	<path class="s72" d="m244.6 290.49q8.89 17.82 22.65 32.23c9.56 10.01 18.28 19.03 27.57 30.83q-23.01 8.19-47.41 9.72c-11.57-15.81-19.52-25.6-32.67-41.21-12.13-14.4-25.53-31.45-39.01-46.69 21.68 10.93 44.49 16.7 68.87 15.12z"/>
	<path class="s65" d="m118.93 310.36q-0.76 0.66 0.48 2.74 9.04 15.22 21.74 27.56-18.81-2.56-37.78-2.86-24.34-0.4-48.8 0.13c-6.63-13.88-11.89-29.14-13.97-44.44q12.64-1.98 25.38-2.24c13.98-0.27 26.6-0.43 41.64-2.48q2.8 5.7 5.11 11.62 1.54 3.96 6.2 9.97z"/>
	<path class="s81" d="m396.87 297.56q3.2 9.66 10.2 17.2 10.86 11.7 21.72 23.42 5.94 6.41 12.14 16.93-19.53 23.8-45.57 40.64c-10.29-14.91-21.69-27.26-35.04-39.8l13.23-17.41q6.26-8.18 11.2-17.05 6.77-11.58 12.12-23.93z"/>
	<path class="s71" d="m385.79 314.53q-1.45 3.37-1.04 6.96-4.94 8.87-11.2 17.05l5.26-14.31z"/>
	<path class="s74" d="m378.81 324.23l-5.26 14.31-13.23 17.41q-30.79 35.71-73.33 56.92 0.84-17.8-3.92-34.5c13.53-2.77 25.74-7.13 37.93-12.66q18.5-8.38 33.62-20.34 10.41-8.25 20.37-18.51 0.08-0.08 0.17-0.16 0.08-0.07 0.17-0.15 0.08-0.07 0.17-0.14 0.09-0.07 0.18-0.13z"/>
	<path class="s78" d="m141.15 340.66q12.59 12.62 28.28 21.59 6.51 32.98 6.26 66.87-32.75-5.72-60.83-23.72-31.39-20.12-51.49-51.57-4.87-7.64-8.8-15.9 24.46-0.53 48.8-0.13 18.97 0.3 37.78 2.86z"/>
	<path class="s82" d="m360.32 355.95c13.35 12.54 24.75 24.89 35.04 39.8-40.12 26.49-89.82 35.99-137.26 28.64q15.47-4.83 28.89-11.52 42.54-21.21 73.33-56.92z"/>
	<path class="s65" d="m169.43 362.25q25.81 14.58 55.38 18.67 5.82 24.25 7.11 49.11-28.1 4.36-56.23-0.91 0.25-33.89-6.26-66.87z"/>
	<path class="s71" d="m283.07 378.37q4.76 16.7 3.92 34.5-13.42 6.69-28.89 11.52-12.58 3.59-26.18 5.64-1.29-24.86-7.11-49.11 29.38 3.69 58.26-2.55z"/>
	<path fill-rule="evenodd" class="s83" d="m485.2 487.38c-3.39 0-6.12-2.73-6.12-6.12 0-3.38 2.73-6.11 6.12-6.11 3.38 0 6.12 2.73 6.12 6.11 0 3.39-2.74 6.12-6.12 6.12z"/>
	<path class="s83" d="m258.69 508.01c0.57 0.75 1.58 1.19 2.09 2.09q0.46 0.8 14.84 20.92 0.1 0.14 0.11 0.31 0.01 0.17-0.06 0.32-0.08 0.14-0.22 0.23-0.14 0.09-0.32 0.09h-10.47q-0.28 0-0.54-0.06-0.27-0.06-0.52-0.18-0.24-0.12-0.46-0.3-0.21-0.17-0.38-0.39-4.25-5.51-6.81-10.25-3.81-7.05-3.93-7.24-2.51-4.26-7.65-3.31-0.1 0.02-0.19 0.08-0.1 0.05-0.17 0.14-0.07 0.08-0.11 0.18-0.04 0.1-0.04 0.21v20.46q0 0.12-0.04 0.24-0.05 0.11-0.14 0.2-0.08 0.08-0.19 0.13-0.12 0.05-0.24 0.05h-9.39q-0.09 0-0.18-0.04-0.08-0.03-0.14-0.09-0.06-0.06-0.1-0.14-0.03-0.08-0.03-0.17v-52.48q0-0.11 0.03-0.19 0.04-0.1 0.1-0.18 0.06-0.06 0.15-0.11 0.09-0.05 0.18-0.06 11.46-1.79 22.05-0.73c2.46 0.25 7.05 1.74 9.12 3.23q6.31 4.5 5.25 12.82-1.25 9.84-11.36 13.42-0.12 0.04-0.2 0.13-0.09 0.1-0.12 0.21-0.04 0.12-0.01 0.24 0.02 0.12 0.09 0.22zm-14.93-21.67v14.29q0 0.18 0.07 0.35 0.07 0.17 0.2 0.3 0.13 0.13 0.3 0.2 0.17 0.07 0.35 0.07h6.02c1.1 0 2.2-0.19 3.22-0.57q1.55-0.56 2.73-1.62c0.78-0.69 1.4-1.52 1.83-2.42q0.63-1.36 0.64-2.84v-1.23q-0.01-1.48-0.64-2.85c-0.43-0.9-1.05-1.72-1.83-2.42-0.78-0.69-1.71-1.24-2.73-1.61-1.02-0.38-2.12-0.57-3.22-0.57h-6.02q-0.18 0-0.35 0.07-0.17 0.07-0.3 0.19-0.13 0.13-0.2 0.31-0.07 0.17-0.07 0.35z"/>
	<path class="s83" d="m53.44 499.03q9.8 0 11.06-0.05 0.06 0 0.13-0.03 0.06-0.03 0.1-0.07 0.04-0.05 0.07-0.11 0.02-0.06 0.02-0.13v-20.55q0-0.11 0.04-0.2 0.04-0.09 0.11-0.17 0.08-0.07 0.16-0.11 0.09-0.03 0.2-0.03h9.51q0.09 0 0.17 0.03 0.08 0.04 0.15 0.1 0.06 0.06 0.09 0.14 0.04 0.08 0.04 0.17v53.46q0 0.09-0.04 0.17-0.03 0.08-0.09 0.14-0.06 0.06-0.14 0.09-0.08 0.04-0.17 0.04h-9.51q-0.11 0-0.2-0.04-0.09-0.04-0.16-0.12-0.08-0.06-0.11-0.16-0.05-0.09-0.05-0.2v-22.51q0-0.07-0.02-0.14-0.03-0.06-0.08-0.11-0.05-0.05-0.11-0.09-0.07-0.02-0.14-0.02-5.85-0.04-11.03-0.04-5.18 0-11.03 0.04-0.07 0-0.14 0.02-0.07 0.03-0.12 0.08-0.05 0.05-0.08 0.12-0.02 0.07-0.02 0.14v22.51q0 0.11-0.04 0.2-0.04 0.1-0.12 0.16-0.06 0.08-0.16 0.12-0.09 0.04-0.19 0.04h-9.52q-0.08 0-0.17-0.04-0.08-0.03-0.14-0.09-0.06-0.06-0.09-0.14-0.03-0.08-0.03-0.17v-53.46q0-0.09 0.04-0.17 0.03-0.08 0.09-0.14 0.07-0.06 0.15-0.1 0.08-0.03 0.17-0.03h9.51q0.11 0 0.2 0.03 0.08 0.04 0.16 0.11 0.07 0.08 0.11 0.17 0.04 0.09 0.04 0.2l-0.01 20.55q0 0.07 0.02 0.13 0.03 0.06 0.07 0.11 0.05 0.05 0.11 0.08 0.06 0.02 0.13 0.02 1.25 0.05 11.06 0.05z"/>
	<path class="s83" d="m445.12 477.63h12.67q0.04 0 0.09 0.01 0.04 0.01 0.07 0.04 0.04 0.03 0.06 0.06 0.03 0.04 0.04 0.08l16.99 53.75q0.01 0.06 0.01 0.12-0.01 0.06-0.05 0.11-0.04 0.05-0.09 0.08-0.06 0.03-0.12 0.03h-11.1q-0.04 0-0.08-0.02-0.05-0.01-0.08-0.03-0.04-0.04-0.06-0.07-0.03-0.03-0.04-0.08l-3.87-14.19q-0.01-0.04-0.03-0.07-0.03-0.04-0.06-0.07-0.04-0.03-0.08-0.04-0.04-0.02-0.09-0.02h-16.3q-0.04 0-0.08 0.02-0.04 0.01-0.08 0.04-0.03 0.03-0.06 0.07-0.02 0.03-0.03 0.07l-3.96 14.19q-0.01 0.04-0.04 0.07-0.02 0.04-0.06 0.07-0.03 0.03-0.07 0.03-0.05 0.02-0.09 0.02h-10.51q-0.06 0-0.12-0.03-0.05-0.03-0.09-0.08-0.04-0.05-0.05-0.11-0.01-0.06 0.01-0.12l17.09-53.74q0.01-0.04 0.04-0.08 0.02-0.03 0.06-0.06 0.03-0.03 0.07-0.04 0.05-0.01 0.09-0.01zm5.99 32.02q5.16 0 5.88-0.05 0.11-0.01 0.21-0.06 0.11-0.06 0.17-0.16 0.07-0.09 0.08-0.2 0.03-0.11-0.01-0.22l-6.11-22.46q-0.01 0-0.01-0.01 0-0.01 0-0.02-0.01-0.01-0.02-0.01 0-0.01-0.01-0.02-0.1-0.1-0.26-0.1-0.14 0-0.24 0.1-0.01 0.01-0.01 0.02-0.01 0-0.02 0.01 0 0.01-0.01 0.02 0 0.01-0.01 0.01l-5.97 22.49q-0.03 0.11-0.01 0.23 0.02 0.11 0.09 0.2 0.06 0.09 0.16 0.15 0.1 0.05 0.21 0.06 0.72 0.04 5.89 0.02z"/>
	<path class="s83" d="m315.41 501.46q-0.19 0-0.37-0.07-0.17-0.07-0.31-0.21-0.14-0.14-0.21-0.32-0.08-0.18-0.08-0.37v-6.01q0-0.16 0.07-0.31 0.06-0.14 0.18-0.26 0.11-0.12 0.25-0.18 0.15-0.06 0.31-0.06h4.27q0.1 0 0.19-0.03 0.09-0.04 0.16-0.11 0.06-0.07 0.1-0.16 0.03-0.09 0.03-0.19v-7.53q0-0.1 0.04-0.2 0.03-0.1 0.09-0.18 0.06-0.08 0.15-0.14 0.08-0.06 0.19-0.09l8.96-2.44q0.11-0.03 0.23 0 0.11 0.01 0.21 0.08 0.09 0.08 0.14 0.18 0.06 0.11 0.06 0.23v9.71q0 0.15 0.05 0.29 0.06 0.14 0.16 0.24 0.1 0.1 0.24 0.15 0.14 0.06 0.29 0.06h7.54q0.19 0 0.37 0.08 0.18 0.07 0.31 0.21 0.14 0.14 0.21 0.31 0.08 0.18 0.08 0.37v6.11q0 0.17-0.07 0.32-0.06 0.17-0.18 0.29-0.12 0.12-0.29 0.18-0.15 0.07-0.33 0.07h-8.13q-0.08 0-0.15 0.03-0.07 0.03-0.13 0.08-0.05 0.06-0.08 0.13-0.03 0.08-0.03 0.15 0.01 11.86-0.03 12.66c-0.24 5.75 0.89 11.13 7.96 9.21q0.18-0.05 0.37-0.01 0.19 0.04 0.35 0.16 0.14 0.11 0.23 0.28 0.09 0.19 0.09 0.38v6.09q0 0.22-0.07 0.43-0.08 0.2-0.21 0.38-0.14 0.17-0.33 0.29-0.18 0.12-0.39 0.17c-4.18 1.03-10.55 1.45-14.02-1.56-3.88-3.36-4.06-7.6-4.05-12.67q0.05-10.29-0.06-15.57 0-0.13-0.05-0.25-0.05-0.12-0.15-0.21-0.08-0.09-0.2-0.14-0.13-0.05-0.25-0.05z"/>
	<path class="s79" d="m243.76 486.34q0-0.18 0.07-0.35 0.07-0.18 0.2-0.31 0.13-0.12 0.3-0.19 0.17-0.07 0.35-0.07h6.02c1.1 0 2.2 0.19 3.22 0.57 1.02 0.37 1.95 0.92 2.73 1.61 0.78 0.7 1.4 1.52 1.83 2.42q0.63 1.37 0.64 2.85v1.23q-0.01 1.48-0.64 2.84c-0.43 0.9-1.05 1.73-1.83 2.42q-1.18 1.06-2.73 1.62c-1.02 0.38-2.12 0.57-3.22 0.57h-6.02q-0.18 0-0.35-0.07-0.17-0.07-0.3-0.2-0.13-0.13-0.2-0.3-0.07-0.17-0.07-0.35z"/>
	<path class="s79" d="m451.03 486.34q0.16 0 0.26 0.1 0.01 0.01 0.01 0.02 0.01 0 0.02 0.01 0 0.01 0 0.02 0 0.01 0.01 0.01l6.11 22.46q0.04 0.11 0.01 0.22-0.01 0.11-0.08 0.2-0.06 0.1-0.17 0.16-0.1 0.05-0.21 0.06-0.72 0.05-5.88 0.05-5.17 0.02-5.89-0.02-0.11-0.01-0.21-0.06-0.1-0.06-0.16-0.15-0.07-0.09-0.09-0.2-0.02-0.12 0.01-0.23l5.97-22.49q0.01 0 0.01-0.01 0.01-0.01 0.01-0.02 0.01-0.01 0.02-0.01 0-0.01 0.01-0.02 0.1-0.1 0.24-0.1z"/>
	<path class="s83" d="m103.06 532.54c-12.52 0.81-21.27-7.54-20.83-20.29 0.4-11.45 7.6-18.59 19.08-19.34 12.52-0.79 21.28 7.55 20.84 20.29-0.4 11.46-7.6 18.6-19.09 19.34zm-9.91-19.94c-0.06 5.63 2.04 12.23 8.87 12.3 6.83 0.06 9.04-6.5 9.11-12.12 0.05-5.63-2.04-12.23-8.87-12.3-6.84-0.07-9.05 6.5-9.11 12.12z"/>
	<path class="s83" d="m128.98 493.61h7.69q0.21 0 0.4 0.08 0.19 0.08 0.34 0.22 0.14 0.15 0.22 0.33 0.08 0.19 0.08 0.4v3.63q0 0.14 0.08 0.26 0.08 0.11 0.21 0.15 0.13 0.05 0.27 0.01 0.13-0.03 0.21-0.15 5.67-7.2 14.94-5.12c3.41 0.76 5.05 2.78 6.91 5.45q0.07 0.09 0.16 0.14 0.09 0.05 0.19 0.06 0.1 0.02 0.2-0.02 0.11-0.03 0.18-0.1 0.1-0.08 1.95-1.78 6.29-5.78 14.67-3.69c6.29 1.58 8.95 8.07 8.97 14.08q0.05 11.97-0.01 23.68 0 0.14-0.06 0.27-0.06 0.12-0.15 0.22-0.1 0.09-0.23 0.15-0.12 0.05-0.25 0.05h-9.23q-0.08 0-0.16-0.04-0.09-0.03-0.15-0.09-0.06-0.06-0.1-0.14-0.03-0.08-0.03-0.17-0.01-1.12 0.01-20.03c0-4.95-0.89-11.35-7.6-10.19q-5.62 0.97-5.84 7.25-0.23 6.14-0.06 22.61 0 0.15-0.06 0.3-0.05 0.14-0.17 0.25-0.11 0.11-0.25 0.17-0.14 0.06-0.3 0.06h-8.98q-0.13 0-0.24-0.04-0.11-0.05-0.19-0.14-0.09-0.08-0.13-0.2-0.04-0.11-0.04-0.23 0.14-13.52 0.01-21.38c-0.07-3.88-1.02-8.16-5.67-8.53q-4.53-0.38-6.63 2.74-1.38 2.03-1.28 7.14 0.09 4.65 0.04 19.86 0 0.16-0.06 0.31-0.06 0.15-0.17 0.26-0.11 0.11-0.26 0.17-0.15 0.06-0.31 0.06h-8.82q-0.14 0-0.27-0.05-0.12-0.06-0.23-0.15-0.09-0.1-0.14-0.22-0.06-0.13-0.06-0.27v-37.23q0-0.08 0.04-0.16 0.02-0.07 0.08-0.13 0.06-0.05 0.12-0.07 0.08-0.04 0.16-0.04z"/>
	<path class="s83" d="m223.3 523.3q0.17-0.05 0.34-0.04 0.18 0.02 0.33 0.1 0.15 0.08 0.26 0.22 0.12 0.13 0.16 0.3l1.42 5.22q0.06 0.23 0.03 0.45-0.02 0.24-0.13 0.43-0.11 0.21-0.29 0.36-0.18 0.14-0.39 0.22c-8.51 2.83-19.47 3.61-26.65-2.21-5.57-4.54-6.71-13.02-5.45-19.67q1.7-9.03 9.1-13.43 6.94-4.13 16.27-1.13c8.12 2.62 10.42 13.5 9.12 21.17q-0.02 0.09-0.06 0.17-0.04 0.07-0.11 0.13-0.07 0.06-0.16 0.08-0.07 0.04-0.17 0.04h-24q-0.13 0-0.25 0.05-0.11 0.06-0.2 0.15-0.08 0.09-0.11 0.22-0.04 0.13-0.02 0.26c1.65 10.05 14.12 9.16 20.96 6.91zm-19.77-14.61l14.09-0.1q0.13 0 0.25-0.05 0.12-0.05 0.2-0.14 0.1-0.09 0.14-0.22 0.05-0.11 0.05-0.24v-0.21q-0.02-1.58-0.6-3.06-0.59-1.47-1.67-2.59-1.08-1.12-2.49-1.72c-0.92-0.4-1.92-0.6-2.92-0.59h-0.15q-1.51 0.02-2.91 0.63-1.39 0.63-2.46 1.76-1.05 1.14-1.63 2.61-0.57 1.48-0.55 3.07v0.2q0 0.13 0.05 0.26 0.05 0.12 0.13 0.2 0.1 0.1 0.22 0.15 0.12 0.04 0.25 0.04z"/>
	<path class="s83" d="m301.02 527.8q0-0.11-0.06-0.2-0.07-0.09-0.17-0.14-0.11-0.03-0.21-0.01-0.11 0.03-0.18 0.12c-6.23 7.05-20.96 7.92-22.96-3.71-0.87-5.04 1.05-9.96 5.59-12.79 4.68-2.9 9.34-3.16 15.63-3.64q0.16-0.02 0.3-0.09 0.15-0.07 0.26-0.18 0.1-0.11 0.16-0.27 0.07-0.14 0.07-0.3 0.01-2.04-0.87-3.62c-1.51-2.7-7.03-2.63-9.44-2.09q-3.85 0.88-7.73 3.15-0.03 0.01-0.05 0.02-0.03 0-0.05-0.01-0.02-0.01-0.04-0.03-0.02-0.02-0.03-0.05l-1.98-7.24q-0.01-0.04-0.01-0.1 0-0.05 0.03-0.09 0.02-0.04 0.06-0.08 0.04-0.04 0.08-0.06 10.78-5.08 21.41-2.54 1.83 0.44 5 2.71 0.09 0.06 0.17 0.13 0.09 0.07 0.16 0.15 0.08 0.08 0.16 0.15 0.07 0.09 0.14 0.18 3.86 5.21 3.9 11.01c0.07 11.41-0.29 18.58 0.52 23.16q0.02 0.11-0.01 0.22-0.02 0.1-0.09 0.19-0.08 0.07-0.17 0.13-0.1 0.04-0.21 0.04h-8.64q-0.15 0-0.28-0.05-0.14-0.06-0.25-0.16-0.1-0.11-0.15-0.24-0.06-0.14-0.06-0.28zm-1.29-14.1c-3.43 0.16-8.34 0.51-10.63 2.81q-2.97 3.01-0.72 6.44 1.05 1.61 2.76 1.8 7.26 0.83 8.9-6.27 0.53-2.3 0.28-4.28-0.02-0.1-0.07-0.21-0.05-0.09-0.13-0.16-0.08-0.07-0.19-0.1-0.1-0.04-0.2-0.03z"/>
	<path class="s83" d="m373.58 523.24q0.16-0.07 0.33-0.05 0.19 0.02 0.34 0.1 0.15 0.08 0.26 0.21 0.11 0.14 0.15 0.3l1.44 5.2q0.06 0.22 0.04 0.45-0.02 0.23-0.13 0.43-0.12 0.2-0.29 0.35-0.18 0.15-0.39 0.23c-8.46 2.85-19.38 3.68-26.55-2.09-5.58-4.5-6.74-12.94-5.52-19.57q1.65-9 9.01-13.41 6.89-4.15 16.2-1.2c8.1 2.58 10.43 13.4 9.17 21.05q-0.02 0.09-0.06 0.17-0.04 0.06-0.1 0.12-0.07 0.06-0.16 0.09-0.08 0.03-0.17 0.03l-23.91 0.11q-0.13 0-0.25 0.05-0.11 0.06-0.2 0.15-0.07 0.1-0.11 0.23-0.03 0.12-0.02 0.25c1.7 10 14.11 9.07 20.92 6.8zm-19.71-14.57l13.96-0.05q0.12 0 0.24-0.04 0.11-0.05 0.2-0.14 0.08-0.08 0.14-0.2 0.04-0.12 0.04-0.24l-0.01-0.32c0-1.05-0.21-2.07-0.59-3.03q-0.58-1.44-1.65-2.55-1.07-1.1-2.45-1.7c-0.92-0.4-1.91-0.6-2.9-0.6h-0.07c-0.99 0-1.98 0.21-2.89 0.61q-1.39 0.6-2.46 1.72c-0.69 0.73-1.24 1.61-1.62 2.57q-0.57 1.46-0.57 3.03l0.01 0.32q0 0.12 0.04 0.25 0.05 0.11 0.14 0.19 0.08 0.09 0.2 0.14 0.12 0.04 0.24 0.04z"/>
	<path class="s83" d="m382.98 522.95q0.03-0.13 0.12-0.23 0.09-0.09 0.21-0.15 0.12-0.06 0.25-0.05 0.13 0 0.25 0.06 6.18 3.15 11.58 2.29c3.1-0.5 5.12-3.85 2.21-6.14q-1.09-0.87-7.42-3.26c-6.47-2.44-9.73-8.98-6.94-15.29 3.87-8.72 16.64-8.35 24.26-5.16q0.05 0.01 0.09 0.06 0.03 0.03 0.06 0.08 0.03 0.06 0.03 0.12 0 0.06-0.01 0.11l-1.97 7.09q-0.01 0.03-0.03 0.05-0.03 0.03-0.05 0.03-0.03 0.02-0.06 0.01-0.03 0-0.05-0.01c-3.01-1.86-8.69-3.38-12-1.2-3.05 2.01-0.54 5.39 1.94 6.25 4.88 1.69 11.62 3.96 13.05 9.57q1.59 6.26-2.2 10.7c-5.54 6.47-17.62 5.44-24.63 2.46q-0.13-0.07-0.24-0.17-0.11-0.11-0.17-0.25-0.07-0.13-0.09-0.28-0.02-0.15 0.03-0.3z"/>
	<path fill-rule="evenodd" class="s83" d="m480.32 493.54l9.35 0.02c0.29 0 0.52 0.23 0.52 0.53l-0.07 37.31c0 0.3-0.23 0.53-0.52 0.53l-9.35-0.02c-0.29 0-0.52-0.23-0.52-0.52l0.07-37.32c0-0.3 0.23-0.53 0.52-0.53z"/>
	<path class="s79" d="m203.53 508.69q-0.13 0-0.25-0.04-0.12-0.05-0.22-0.15-0.08-0.08-0.13-0.2-0.05-0.13-0.05-0.26v-0.2q-0.02-1.59 0.55-3.07 0.58-1.47 1.63-2.61 1.07-1.13 2.46-1.76 1.4-0.61 2.91-0.63h0.15c1-0.01 2 0.19 2.92 0.59q1.41 0.6 2.49 1.72 1.08 1.12 1.67 2.59 0.58 1.48 0.6 3.06v0.21q0 0.13-0.05 0.24-0.04 0.13-0.14 0.22-0.08 0.09-0.2 0.14-0.12 0.05-0.25 0.05z"/>
	<path class="s79" d="m353.87 508.67q-0.12 0-0.24-0.04-0.12-0.05-0.2-0.14-0.09-0.08-0.14-0.19-0.04-0.13-0.04-0.25l-0.01-0.32q0-1.57 0.57-3.03c0.38-0.96 0.93-1.84 1.62-2.57q1.07-1.12 2.46-1.72c0.91-0.4 1.9-0.61 2.89-0.61h0.07c0.99 0 1.98 0.2 2.9 0.6q1.38 0.6 2.45 1.7 1.07 1.11 1.65 2.55c0.38 0.96 0.59 1.98 0.59 3.03l0.01 0.32q0 0.12-0.04 0.24-0.06 0.12-0.14 0.2-0.09 0.09-0.2 0.14-0.12 0.04-0.24 0.04z"/>
	<path class="s79" d="m102.26 500.48c6.83 0.07 8.92 6.67 8.87 12.3-0.07 5.62-2.28 12.18-9.11 12.12-6.83-0.07-8.93-6.67-8.87-12.3 0.06-5.62 2.27-12.19 9.11-12.12z"/>
	<path class="s79" d="m300.32 514.2q0.25 1.98-0.28 4.29-1.64 7.1-8.9 6.26-1.71-0.19-2.76-1.8-2.25-3.43 0.72-6.43c2.29-2.31 7.2-2.67 10.63-2.82q0.1-0.01 0.2 0.03 0.11 0.03 0.19 0.1 0.08 0.07 0.13 0.16 0.05 0.1 0.07 0.21z"/>
	<path fill-rule="evenodd" class="s84" d="m425.34 526.96c-0.55 3.68-3.88 6.2-7.44 5.66-3.55-0.55-5.98-3.95-5.41-7.62 0.55-3.67 3.89-6.2 7.44-5.65 3.56 0.54 5.98 3.95 5.41 7.61z"/>
</svg>