<svg version="1.2" xmlns="http://www.w3.org/2000/svg" viewBox="0 0 1600 600" width="1600" height="600">
	<defs>
		<clipPath clipPathUnits="userSpaceOnUse" id="cp1">
			<path d="m0 0h1600v600h-1600z"/>
		</clipPath>
	</defs>
	<style>
		.s0 { fill: #ffffff } 
	</style>
	<g id="Artboard 1" clip-path="url(#cp1)">
		<path id="HomeRates.Ai" fill-rule="evenodd" class="s0" d="m241.51 235.63l-27.34 136.37h-14.26l12.5-62.73h-85.54l-12.5 62.73h-14.26l27.34-136.37h14.26l-12.11 60.59h85.55l12.1-60.59zm13.7 93.9c0-34.87 24.8-60.78 59.37-60.78 28.51 0 46.68 16.75 46.68 43.25 0 35.06-24.81 60.97-59.38 60.97-28.51 0-46.67-17.14-46.67-43.44zm92.18-16.76c0-20.06-12.3-31.95-33.79-31.95-25.58 0-44.53 20.27-44.53 48.12 0 20.07 12.31 31.76 33.79 31.76 25.59 0 44.53-20.07 44.53-47.93zm214.21-11.1c0 3.7-0.59 7.79-1.37 12.08l-11.72 58.25h-13.86l11.72-58.45c0.78-3.5 0.97-6.62 0.97-9.54 0-14.42-8.4-22.8-25.39-22.8-20.51 0-35.15 11.3-39.84 34.29l-11.33 56.5h-13.87l11.72-58.45c0.59-3.31 0.98-6.42 0.98-9.35 0-14.61-8.2-22.99-25.39-22.99-20.9 0-35.35 12.08-40.23 35.85l-10.94 54.94h-13.87l20.31-102.47h13.28l-3.32 16.36c9.77-11.88 23.25-17.14 38.87-17.14 17.38 0 29.1 7.4 33.59 20.45 10.36-13.64 25.39-20.45 43.36-20.45 23.24 0 36.33 12.27 36.33 32.92zm37.47 22.99c-0.19 1.36-0.19 2.73-0.19 4.09 0 20.46 11.72 31.95 35.35 31.95 13.67 0 25.97-4.87 33.59-12.86l6.25 9.94c-9.57 9.54-25 15.19-41.01 15.19-29.69 0-47.85-16.75-47.85-43.64 0-34.87 24.02-60.58 56.83-60.58 27.15 0 44.73 16.17 44.73 43.44 0 4.29-0.59 8.57-1.37 12.47zm1.37-10.33h73.24c0.19-1.36 0.19-2.53 0.19-3.7 0-19.48-13.08-30.2-32.22-30.2-20.71 0-36.14 13.45-41.21 33.9zm190.06 12.08l25.78 45.59h-15.62l-24.61-43.44c-2.15 0.19-4.69 0.19-7.03 0.19h-38.87l-8.59 43.25h-14.45l27.34-136.37h49.22c31.05 0 48.82 14.22 48.82 38.57 0 28.05-15.62 46.17-41.99 52.21zm27.54-50.85c0-17.92-12.69-27.47-35.35-27.47h-36.33l-13.86 68.19h36.91c30.86 0 48.63-13.83 48.63-40.72zm141.39-6.03l-20.5 102.47h-13.29l3.32-16.17c-9.76 10.72-23.43 17.14-40.03 17.14-26.37 0-44.73-16.36-44.73-43.44 0-35.07 24.61-60.78 58.01-60.78 19.53 0 33.2 7.98 39.06 22.21l4.3-21.43zm-23.05 43.24c0-20.06-12.3-31.95-33.79-31.95-25.58 0-44.53 20.27-44.53 48.12 0 20.07 12.31 31.76 33.79 31.76 25.58 0 44.53-20.07 44.53-47.93zm64.06 28.25c-0.39 2.34-0.79 4.48-0.79 6.43 0 8.77 4.89 13.64 14.85 13.64 5.66 0 11.13-1.75 15.82-5.26l3.32 10.52c-6.45 4.87-15.04 6.62-22.85 6.62-15.43 0-25-8.76-25-23.37 0-2.54 0.19-5.26 0.78-7.99l11.91-60.4h-18.16l2.15-11.68h18.36l4.49-22.41h13.87l-4.5 22.41h31.25l-2.34 11.68h-31.25zm65.63-16.36c-0.2 1.36-0.2 2.73-0.2 4.09 0 20.46 11.72 31.95 35.35 31.95 13.67 0 25.98-4.87 33.59-12.86l6.25 9.94c-9.57 9.54-25 15.19-41.01 15.19-29.69 0-47.85-16.75-47.85-43.63 0-34.88 24.02-60.59 56.83-60.59 27.15 0 44.73 16.17 44.73 43.44 0 4.29-0.59 8.57-1.37 12.47zm1.37-10.33h73.24c0.19-1.36 0.19-2.53 0.19-3.7 0-19.48-13.08-30.19-32.22-30.19-20.7 0-36.13 13.44-41.21 33.89zm92.8 46.18l6.64-10.91c7.82 6.81 21.49 11.3 35.55 11.3 19.73 0 30.47-6.82 30.47-18.32 0-23.18-58.2-7.21-58.2-41.88 0-19.49 17.57-31.95 44.53-31.95 13.08 0 26.95 3.7 34.76 9.54l-5.86 11.11c-8.01-6.04-19.53-8.77-30.08-8.77-18.94 0-29.68 7.6-29.68 18.7 0 23.77 58.2 7.6 58.2 41.69 0 20.27-18.16 31.95-45.51 31.95-16.79 0-32.81-5.26-40.82-12.46zm99.71 2.33c0-6.43 5.08-11.1 10.94-11.1 5.67 0 9.96 4.29 9.96 10.13 0 6.43-5.08 11.1-10.74 11.1-5.66 0-10.16-4.48-10.16-10.13zm151.91-27.27h-76.37l-23.63 36.43h-15.62l89.84-136.37h14.25l35.16 136.37h-14.45zm-2.74-11.69l-18.55-73.64-47.66 73.64zm69.89-85.91c0-5.85 4.49-10.52 10.74-10.52 5.47 0 9.57 4.09 9.57 8.76 0 6.24-4.69 10.91-10.94 10.91-5.47 0-9.37-4.28-9.37-9.15zm-3.52 31.56h13.87l-20.31 102.47h-13.87z"/>
	</g>
</svg>